<?xml version="1.0" encoding="UTF-8"?>
<svg width="100pt" height="100pt" version="1.1" viewBox="0 0 100 100" xmlns="http://www.w3.org/2000/svg">
 <g fill="#676767">
  <path d="m50.25 13.203c-2.332 0-4.6094 0.23047-6.8242 0.64844l0.003907 0.003907c-1.4922 0.28125-7.3281 2.2656-10.102 7.0234-2.6992 4.6289-2.8594 10.523-0.47656 17.523 3.8672 11.359 13.129 10.32 15.973 9.7031 0.39453-0.87109 1.082-2.1992 2.125-3.6289 3.0547-4.1758 9.1562-9.1562 19.902-5.7891 9.5859 3.0039 13.941 8.1172 15.922 12.145 0.011718-0.35938 0.027343-0.71875 0.027343-1.082-0.003906-20.148-16.398-36.547-36.551-36.547zm-1.082 20.793c-1.9141 0-3.4648-1.5508-3.4648-3.4648s1.5508-3.4648 3.4648-3.4648c1.9141 0 3.4648 1.5508 3.4648 3.4648s-1.5508 3.4648-3.4648 3.4648z"/>
  <path d="m83.543 53.141c-2.1406-4.9102-6.8047-8.5234-13.859-10.73-11.203-3.5117-15.883 4.1641-17.184 6.9844 0.59375 0.75781 1.3984 1.9023 2.1406 3.3633 2.3398 4.6094 4.0195 12.309-3.8438 20.367-7.0195 7.1914-13.555 8.7617-18.039 8.7031 5.1992 2.8477 11.16 4.4688 17.496 4.4688 14.539 0 27.117-8.5352 33-20.855h-0.003906c0.64844-1.3711 2.4961-7.2539 0.29297-12.301zm-14.887 10.199c-1.9141 0-3.4648-1.5508-3.4648-3.4648s1.5508-3.4648 3.4648-3.4648 3.4648 1.5508 3.4648 3.4648-1.5508 3.4648-3.4648 3.4648z"/>
  <path d="m50.25 2c-26.371 0-47.75 21.379-47.75 47.75s21.379 47.75 47.75 47.75 47.75-21.379 47.75-47.75-21.379-47.75-47.75-47.75zm0 89.379c-22.953 0-41.633-18.676-41.633-41.629s18.676-41.629 41.633-41.629c22.953 0 41.629 18.676 41.629 41.629s-18.676 41.629-41.629 41.629z"/>
  <path d="m48.008 70.402c8.1992-8.4023 3.4727-16.047 1.5469-18.484-0.94141 0.1875-2.3281 0.38672-3.9688 0.38672-5.1719 0-12.797-1.9844-16.426-12.645-3.2344-9.4961-1.6836-16.031 0.39453-20.008-9.5664 6.5977-15.852 17.625-15.852 30.098 0 8.5547 2.9609 16.422 7.9023 22.652 1.332 1.5078 5.4766 5.207 10.559 5.5039 5.3477 0.3125 10.68-2.2109 15.844-7.5039zm-17.68-8.3633c0-1.9141 1.5508-3.4648 3.4648-3.4648 1.9141 0 3.4648 1.5508 3.4648 3.4648 0 1.9141-1.5508 3.4648-3.4648 3.4648-1.9141 0-3.4648-1.5508-3.4648-3.4648z"/>
 </g>
</svg>
