<?xml version="1.0" encoding="UTF-8"?>
<svg width="25pt" height="25pt" version="1.1" viewBox="0 0 100 100" xmlns="http://www.w3.org/2000/svg">
 <g fill="#676767">
  <path d="m62.5 62.512h9.375v3.125h-9.375z"/>
  <path d="m17.188 70.324c0 4.1641-6.25 4.1641-6.25 0 0-4.168 6.25-4.168 6.25 0"/>
  <path d="m56.25 78.137c0 4.1641-6.25 4.1641-6.25 0 0-4.168 6.25-4.168 6.25 0"/>
  <path d="m82.812 78.137c0 4.1641-6.25 4.1641-6.25 0 0-4.168 6.25-4.168 6.25 0"/>
  <path d="m40.625 10.949h-3.125c-0.86328 0-1.5625 0.69922-1.5625 1.5625v1.5625h6.25v-1.5625c0-0.86328-0.69922-1.5625-1.5625-1.5625z"/>
  <path d="m20.312 10.949h-9.375v43.75h9.375zm-3.125 40.625h-3.125v-37.5h3.125z"/>
  <path d="m53.125 62.512c0 4.1641-6.25 4.1641-6.25 0 0-4.168 6.25-4.168 6.25 0"/>
  <path d="m35.938 17.199h6.25v3.125h-6.25z"/>
  <path d="m81.25 59.387h3.125v3.125h-3.125z"/>
  <path d="m42.188 52.82v-7.4961h-12.5v43.75h4.7031c0.13281-9.1523 1.0508-18.332 2.7344-27.324l0.16797-0.89844c0.60547-3.2188 2.332-6.0391 4.8945-8.0312z"/>
  <path d="m92.613 62.328-0.16797-0.89844c-0.89844-4.8047-5.1016-8.293-9.9922-8.293-1.5703 0-3.1406 0.37109-4.5469 1.0742l-1.2969 0.64844c-1.8398 0.91797-3.8945 1.4023-5.9453 1.4023h-8.5273c-2.0508 0-4.1055-0.48438-5.9453-1.4023l-1.2969-0.65234c-1.4023-0.69922-2.9766-1.0703-4.543-1.0703l-1.9141 0.066406v-43.816c0-2.5859-2.1016-4.6875-4.6875-4.6875h-34.375c-2.5859 0-4.6875 2.1016-4.6875 4.6875v81.25c0 2.5859 2.1016 4.6875 4.6875 4.6875h26.211c-0.61719-0.91406-1.0273-1.9766-1.1641-3.125h-7.8594v-50h18.75v12.238l-0.68359 0.46484c-2.2461 1.5312-3.7617 3.8516-4.2656 6.5234l-0.16797 0.89844c-1.7891 9.5508-2.6953 19.324-2.6953 29.039 0 2.1836 1.7773 3.9609 3.9609 3.9609 1.0586 0 2.0547-0.41406 2.8008-1.1602 5.2969-5.2969 12.34-8.2148 19.832-8.2148h4.625c7.4922 0 14.535 2.918 19.832 8.2148 0.75 0.75 1.7422 1.1602 2.8008 1.1602 2.1836 0 3.9609-1.7773 3.9609-3.9609 0-9.7148-0.90625-19.488-2.6992-29.035zm-78.551 29.871c-3.4453 0-6.25-2.8047-6.25-6.25 0-3.4453 2.8047-6.25 6.25-6.25s6.25 2.8047 6.25 6.25c0 3.4453-2.8047 6.25-6.25 6.25zm0-15.625c-3.4453 0-6.25-2.8047-6.25-6.25 0-3.4453 2.8047-6.25 6.25-6.25s6.25 2.8047 6.25 6.25c0 3.4453-2.8047 6.25-6.25 6.25zm9.375-18.75h-15.625v-50h15.625zm17.188-18.75h-3.125c-2.5859 0-4.6875-2.1016-4.6875-4.6875v-21.875c0-2.5859 2.1016-4.6875 4.6875-4.6875h3.125c2.5859 0 4.6875 2.1016 4.6875 4.6875v21.875c0 2.5859-2.1016 4.6875-4.6875 4.6875zm3.125 23.438c0-3.4453 2.8047-6.25 6.25-6.25s6.25 2.8047 6.25 6.25c0 3.4453-2.8047 6.25-6.25 6.25s-6.25-2.8047-6.25-6.25zm9.375 21.875c-3.4453 0-6.25-2.8047-6.25-6.25 0-3.4453 2.8047-6.25 6.25-6.25s6.25 2.8047 6.25 6.25c0 3.4453-2.8047 6.25-6.25 6.25zm6.25-15.625v-9.375h15.625v9.375zm20.312 15.625c-3.4453 0-6.25-2.8047-6.25-6.25 0-3.4453 2.8047-6.25 6.25-6.25s6.25 2.8047 6.25 6.25c0 3.4453-2.8047 6.25-6.25 6.25zm7.8125-21.875h-3.125v3.125h-3.125v-3.125h-3.125v-3.125h3.125v-3.125h3.125v3.125h3.125z"/>
  <path d="m35.938 34.387c0 0.86328 0.69922 1.5625 1.5625 1.5625h3.125c0.86328 0 1.5625-0.69922 1.5625-1.5625v-10.938h-6.25z"/>
  <path d="m17.188 85.949c0 4.1641-6.25 4.1641-6.25 0 0-4.168 6.25-4.168 6.25 0"/>
 </g>
</svg>
